<?xml version="1.0"?>
<svg version="1.1" xmlns="http://www.w3.org/2000/svg" width="400px" height="70px"><path fill="#1b1b1b" d="M62.075,45.85c0,3.185-0.665,5.6-2.45,7c-1.155,0.91-2.835,1.4-5.11,1.4c-0.63,0-1.75-0.105-2.52-0.245c-0.42-0.07-0.56-0.28-0.56-0.56c0-0.105,0-0.21,0.035-0.35l0.35-1.96c0.07-0.315,0.175-0.56,0.595-0.56c0.07,0,0.14,0.035,0.245,0.035c0.63,0.105,1.33,0.21,1.855,0.21c0.91,0,1.855-0.315,2.345-0.945c0.49-0.665,0.735-1.75,0.735-3.255l0-14l-3.955,0c-0.56,0-0.735-0.35-0.735-0.77l0-1.435c0-0.49,0.245-0.735,0.735-0.735l7.595,0c0.525,0,0.84,0.315,0.84,0.805l0,15.365z M83.7925,45.36c0,0.84-0.28,1.015-1.155,1.015l-10.255,0c0.28,2.695,2.24,4.55,5.005,4.55c1.47,0,3.01-0.35,4.305-0.84c0.14-0.035,0.245-0.105,0.385-0.105c0.245,0,0.42,0.14,0.49,0.42l0.49,1.785c0.035,0.175,0.07,0.315,0.07,0.42c0,0.245-0.14,0.42-0.56,0.595c-1.715,0.77-4.06,1.12-5.88,1.12c-5.495,0-8.75-3.5-8.75-8.96c0-5.25,3.465-8.89,8.68-8.89c2.135,0,3.885,0.805,5.11,2.1c1.61,1.68,2.065,3.885,2.065,6.265l0,0.525z M79.6275,43.61l0-0.385c-0.07-1.82-1.12-3.5-3.255-3.5c-2.275,0-3.64,1.82-3.92,3.885l7.175,0z M104.915,45.395c0,5.04-3.08,8.925-8.54,8.925c-5.705,0-8.33-3.85-8.33-8.96c0-5.04,3.08-8.89,8.54-8.89c5.705,0,8.33,3.78,8.33,8.925z M100.54,45.395c0-2.87-0.91-5.6-3.99-5.6c-3.115,0-4.13,2.695-4.13,5.495c0,2.87,0.875,5.705,3.99,5.705c3.08,0,4.13-2.73,4.13-5.6z M125.6175,52.99c0,0.595-0.21,0.91-0.84,0.91l-2.52,0c-0.63,0-0.84-0.315-0.84-0.91l0-9.52c0-1.925-0.525-3.29-2.66-3.29c-1.365,0-3.045,0.735-4.13,1.68l0,11.165c0,0.595-0.245,0.875-0.84,0.875l-2.555,0c-0.525,0-0.84-0.28-0.84-0.84l0-15.26c0-0.56,0.245-0.875,0.875-0.875l2.275,0c0.49,0,0.805,0.14,0.84,0.665l0.035,0.91c1.61-1.295,3.64-2.03,5.67-2.03c3.92,0,5.53,2.45,5.53,6.265l0,10.255z M147.23,52.745c0,5.67-2.415,8.82-8.295,8.82c-1.715,0-3.5-0.35-5.18-1.085c-0.385-0.175-0.56-0.385-0.56-0.7c0-0.175,0.07-0.315,0.105-0.455l0.49-1.54c0.14-0.385,0.28-0.63,0.525-0.63c0.175,0,0.35,0.07,0.525,0.14c1.26,0.525,2.695,0.91,3.92,0.91c3.5,0,4.235-1.855,4.235-4.655l0-1.4c-1.05,1.015-3.01,1.785-4.55,1.785c-2.17,0-3.92-0.7-5.145-1.995c-1.47-1.505-2.205-3.78-2.205-6.335c0-4.69,2.73-9.1,7.805-9.1c0.84,0,1.715,0.21,2.52,0.56c0.665,0.28,1.365,0.805,1.785,1.4l0.07-0.91c0.035-0.455,0.28-0.63,0.805-0.63l2.31,0c0.63,0,0.84,0.245,0.84,0.84l0,14.98z M142.995,48.825l0-7.21c-0.7-0.945-2.065-1.715-3.395-1.715c-1.085,0-1.96,0.42-2.59,1.015c-1.085,1.05-1.505,2.835-1.505,4.445c0,1.54,0.35,3.185,1.4,4.2c0.63,0.63,1.54,0.945,2.485,0.945c1.365,0,2.905-0.805,3.605-1.68z M168.8075,53.025c0,0.595-0.35,0.875-0.77,0.875l-2.275,0c-0.56,0-0.805-0.28-0.84-0.7l-0.07-0.945c-0.98,1.12-2.94,2.065-4.76,2.065c-5.075,0-7.385-4.025-7.385-8.715c0-4.9,2.73-9.17,7.665-9.17c1.575,0,3.22,0.63,4.2,1.645l0-7.875c0-0.63,0.175-0.875,0.735-0.945l2.59-0.35c0.035,0,0.315-0.035,0.35-0.035c0.42,0,0.56,0.175,0.56,0.7l0,23.45z M164.5725,49.14l0-7.595c-0.7-0.945-2.03-1.715-3.36-1.715c-2.835,0-4.095,2.66-4.095,5.53s1.05,5.53,3.885,5.53c1.295,0,2.87-0.875,3.57-1.75z M191.155,45.395c0,5.04-3.08,8.925-8.54,8.925c-5.705,0-8.33-3.85-8.33-8.96c0-5.04,3.08-8.89,8.54-8.89c5.705,0,8.33,3.78,8.33,8.925z M186.78,45.395c0-2.87-0.91-5.6-3.99-5.6c-3.115,0-4.13,2.695-4.13,5.495c0,2.87,0.875,5.705,3.99,5.705c3.08,0,4.13-2.73,4.13-5.6z M211.8575,52.99c0,0.595-0.21,0.91-0.84,0.91l-2.52,0c-0.63,0-0.84-0.315-0.84-0.91l0-9.52c0-1.925-0.525-3.29-2.66-3.29c-1.365,0-3.045,0.735-4.13,1.68l0,11.165c0,0.595-0.245,0.875-0.84,0.875l-2.555,0c-0.525,0-0.84-0.28-0.84-0.84l0-15.26c0-0.56,0.245-0.875,0.875-0.875l2.275,0c0.49,0,0.805,0.14,0.84,0.665l0.035,0.91c1.61-1.295,3.64-2.03,5.67-2.03c3.92,0,5.53,2.45,5.53,6.265l0,10.255z M233.47,52.745c0,5.67-2.415,8.82-8.295,8.82c-1.715,0-3.5-0.35-5.18-1.085c-0.385-0.175-0.56-0.385-0.56-0.7c0-0.175,0.07-0.315,0.105-0.455l0.49-1.54c0.14-0.385,0.28-0.63,0.525-0.63c0.175,0,0.35,0.07,0.525,0.14c1.26,0.525,2.695,0.91,3.92,0.91c3.5,0,4.235-1.855,4.235-4.655l0-1.4c-1.05,1.015-3.01,1.785-4.55,1.785c-2.17,0-3.92-0.7-5.145-1.995c-1.47-1.505-2.205-3.78-2.205-6.335c0-4.69,2.73-9.1,7.805-9.1c0.84,0,1.715,0.21,2.52,0.56c0.665,0.28,1.365,0.805,1.785,1.4l0.07-0.91c0.035-0.455,0.28-0.63,0.805-0.63l2.31,0c0.63,0,0.84,0.245,0.84,0.84l0,14.98z M229.235,48.825l0-7.21c-0.7-0.945-2.065-1.715-3.395-1.715c-1.085,0-1.96,0.42-2.59,1.015c-1.085,1.05-1.505,2.835-1.505,4.445c0,1.54,0.35,3.185,1.4,4.2c0.63,0.63,1.54,0.945,2.485,0.945c1.365,0,2.905-0.805,3.605-1.68z M268.75,53.445c0,0.28-0.21,0.455-0.56,0.455l-3.5,0c-0.84,0-1.225-0.28-1.68-0.875l-7.56-9.695l-0.07,0l0,9.695c0,0.63-0.245,0.875-0.84,0.875l-2.8,0c-0.63,0-0.875-0.245-0.875-0.875l0-22.505c0-0.595,0.315-0.84,0.875-0.84l2.8,0c0.56,0,0.84,0.21,0.84,0.84l0,9.905l0.07,0l7.21-10.115c0.315-0.42,0.735-0.63,1.295-0.63l2.8,0c0.35,0,0.56,0.21,0.56,0.455c0,0.14-0.035,0.28-0.14,0.42l-8.05,10.815l9.31,11.445c0.175,0.21,0.315,0.455,0.315,0.63z M278.1825,32.48c0,1.365-1.19,2.205-2.345,2.205s-2.38-0.77-2.38-2.17s1.155-2.24,2.38-2.24c1.19,0,2.345,0.805,2.345,2.205z M277.9725,53.025c0,0.63-0.28,0.875-0.875,0.875l-2.45,0c-0.63,0-0.91-0.245-0.91-0.875l0-15.295c0-0.595,0.35-0.805,0.91-0.805l2.45,0c0.56,0,0.875,0.175,0.875,0.805l0,15.295z M310.015,53.025c0,0.63-0.245,0.875-0.84,0.875l-2.45,0c-0.63,0-0.91-0.245-0.91-0.875l0-9.59c0-1.89-0.49-3.325-2.625-3.325c-1.33,0-2.87,0.7-3.955,1.575c0.07,0.315,0.14,5.005,0.14,5.495l0,5.845c0,0.63-0.245,0.875-0.84,0.875l-2.31,0c-0.63,0-0.91-0.245-0.91-0.875l0-9.59c0-1.855-0.385-3.325-2.52-3.325c-1.365,0-2.765,0.77-3.885,1.75l0,11.165c0,0.63-0.28,0.875-0.875,0.875l-2.45,0c-0.63,0-0.91-0.245-0.91-0.875l0-15.295c0-0.56,0.315-0.805,0.84-0.805l2.275,0c0.525,0,0.84,0.175,0.875,0.665l0.035,0.875c1.435-1.26,3.325-1.995,5.145-1.995c2.135,0,3.64,0.945,4.445,2.275c1.575-1.505,3.85-2.275,5.985-2.275c2.555,0,4.165,1.26,4.9,2.625c0.665,1.295,0.84,2.835,0.84,5.075l0,8.855z"/><path fill="#" d=""/></svg>
